<?xml version="1.0" standalone="no"?>
<!DOCTYPE svg PUBLIC "-//W3C//DTD SVG 20010904//EN"
 "http://www.w3.org/TR/2001/REC-SVG-20010904/DTD/svg10.dtd">
<svg version="1.0" xmlns="http://www.w3.org/2000/svg"
 width="500.000000pt" height="267.000000pt" viewBox="0 0 500.000000 267.000000"
 preserveAspectRatio="xMidYMid meet">

<g transform="translate(0.000000,267.000000) scale(0.100000,-0.100000)"
fill="#000000" stroke="none">
<path d="M3813 2461 c-42 -26 -65 -73 -65 -131 0 -94 59 -154 145 -147 118 10
167 162 83 255 -42 45 -112 55 -163 23z m128 -39 c27 -24 33 -37 37 -85 4 -54
3 -58 -32 -93 -32 -32 -41 -36 -73 -31 -20 4 -48 18 -62 32 -22 22 -26 35 -26
84 0 45 5 64 20 81 42 47 92 51 136 12z"/>
<path d="M3837 2163 c-4 -4 -7 -133 -7 -287 l1 -279 -258 -150 c-142 -82 -263
-150 -268 -150 -6 0 -98 50 -204 111 -182 105 -221 123 -221 105 0 -10 410
-247 425 -246 5 0 136 74 290 163 154 89 285 164 292 167 6 2 98 -45 203 -106
105 -61 196 -111 202 -111 30 0 -15 32 -165 119 l-168 97 -2 280 c-1 176 -6
280 -12 282 -6 1 -11 -95 -13 -269 -2 -263 -3 -270 -22 -264 -10 3 -27 2 -37
-3 -17 -10 -18 3 -15 261 2 248 -2 300 -21 280z"/>
<path d="M1707 1813 c-9 -2 -24 -17 -32 -33 -41 -80 10 -185 74 -150 70 37 27
144 -45 111 -24 -10 -25 -10 -18 11 11 38 26 50 56 46 18 -3 27 0 25 6 -4 12
-33 17 -60 9z m48 -128 c0 -38 -2 -40 -30 -40 -26 0 -30 4 -33 28 -5 44 4 59
35 55 25 -3 28 -7 28 -43z"/>
<path d="M2623 1771 c-42 -26 -65 -73 -65 -131 0 -94 59 -154 145 -147 118 10
167 162 83 255 -42 45 -112 55 -163 23z m128 -39 c27 -24 33 -37 37 -85 4 -54
3 -58 -32 -93 -32 -32 -41 -36 -73 -31 -20 4 -48 18 -62 32 -22 22 -26 35 -26
84 0 45 5 64 20 81 42 47 92 51 136 12z"/>
<path d="M1218 1457 l-297 -172 -1 -342 0 -341 -170 -98 c-156 -90 -189 -114
-159 -114 7 0 84 42 173 92 88 51 166 93 171 93 6 0 141 -75 301 -168 l292
-167 295 170 296 171 200 -115 c110 -64 205 -116 210 -116 33 0 -10 30 -194
136 l-205 118 0 332 0 333 195 112 c179 103 217 129 183 129 -7 0 -98 -50
-201 -109 l-188 -109 -217 125 c-119 69 -251 145 -293 169 -42 24 -80 44 -85
43 -5 0 -143 -78 -306 -172z m603 -23 l289 -166 0 -329 0 -329 -37 -24 c-87
-56 -545 -316 -551 -313 -4 2 -134 77 -290 167 l-282 162 2 336 3 335 280 163
c154 89 284 163 289 163 5 1 138 -74 297 -165z"/>
<path d="M1510 1442 c0 -12 453 -271 463 -265 15 9 -13 28 -229 152 -200 115
-234 131 -234 113z"/>
<path d="M1080 935 c0 -170 4 -265 10 -265 6 0 10 95 10 265 0 170 -4 265 -10
265 -6 0 -10 -95 -10 -265z"/>
<path d="M1735 569 c-203 -118 -248 -150 -213 -148 20 1 451 253 456 267 8 25
-28 7 -243 -119z"/>
<path d="M860 1545 c0 -45 0 -45 35 -45 24 0 37 -6 45 -20 23 -43 -18 -82 -69
-65 -12 3 -21 2 -21 -4 0 -30 93 -22 110 9 24 45 -6 100 -55 100 -20 0 -25 5
-25 25 0 23 4 25 40 25 22 0 40 5 40 10 0 6 -22 10 -50 10 l-50 0 0 -45z"/>
<path d="M4403 1431 c-42 -26 -65 -73 -65 -131 0 -94 59 -154 145 -147 118 10
167 162 83 255 -42 45 -112 55 -163 23z m128 -39 c27 -24 33 -37 37 -85 4 -54
3 -58 -32 -93 -32 -32 -41 -36 -73 -31 -20 4 -48 18 -62 32 -22 22 -26 35 -26
84 0 45 5 64 20 81 42 47 92 51 136 12z"/>
<path d="M4660 1310 c0 -133 1 -140 20 -140 18 0 20 7 20 65 l0 65 70 0 70 0
0 -65 c0 -58 2 -65 20 -65 19 0 20 7 20 140 0 133 -1 140 -20 140 -18 0 -20
-7 -20 -60 l0 -60 -70 0 -70 0 0 60 c0 53 -2 60 -20 60 -19 0 -20 -7 -20 -140z"/>
<path d="M2238 1243 c-26 -7 -22 -25 5 -21 21 3 22 -1 25 -74 3 -78 3 -78 -23
-78 -14 0 -25 -4 -25 -10 0 -5 25 -10 55 -10 30 0 55 5 55 10 0 6 -9 10 -20
10 -19 0 -20 7 -20 90 0 96 -1 97 -52 83z"/>
<path d="M756 791 c-48 -78 -47 -91 4 -91 36 0 40 -2 40 -25 0 -14 5 -25 10
-25 6 0 10 11 10 25 0 16 6 25 15 25 8 0 15 5 15 10 0 6 -7 10 -15 10 -12 0
-15 14 -15 65 0 83 -15 85 -64 6z m44 -21 l0 -50 -35 0 -35 0 31 50 c17 28 33
50 35 50 2 0 4 -22 4 -50z"/>
<path d="M2078 483 c-10 -2 -18 -9 -18 -15 0 -6 11 -8 26 -4 77 20 87 -37 19
-104 -61 -60 -59 -70 15 -70 33 0 60 4 60 10 0 6 -21 10 -46 10 l-46 0 41 46
c51 58 57 108 15 124 -26 10 -37 11 -66 3z"/>
<path d="M281 417 c-38 -19 -63 -62 -69 -115 -9 -100 33 -162 116 -170 44 -4
53 -1 80 24 17 16 34 41 38 57 5 23 3 27 -15 27 -14 0 -21 -6 -21 -19 0 -25
-45 -61 -76 -61 -84 0 -119 157 -49 218 36 31 71 28 105 -8 15 -16 33 -30 39
-30 21 0 11 31 -18 61 -33 32 -86 39 -130 16z"/>
<path d="M500 290 c0 -118 2 -140 15 -140 13 0 15 22 15 140 0 118 -2 140 -15
140 -13 0 -15 -22 -15 -140z"/>
<path d="M2661 417 c-38 -19 -63 -62 -69 -115 -9 -100 33 -162 116 -170 44 -4
53 -1 80 24 17 16 34 41 38 57 5 23 3 27 -15 27 -14 0 -21 -6 -21 -19 0 -25
-45 -61 -76 -61 -34 0 -74 40 -83 83 -12 51 3 107 34 135 36 31 71 28 105 -8
15 -16 33 -30 39 -30 21 0 11 31 -18 61 -33 32 -86 39 -130 16z"/>
<path d="M2870 290 c0 -118 2 -140 15 -140 13 0 15 22 15 140 0 118 -2 140
-15 140 -13 0 -15 -22 -15 -140z"/>
<path d="M1273 283 c-25 -9 -12 -19 20 -15 41 5 67 -19 47 -43 -7 -8 -23 -15
-36 -15 -33 0 -30 -18 2 -22 35 -4 53 -31 38 -56 -8 -12 -24 -17 -53 -16 -48
1 -54 -11 -11 -21 43 -10 84 13 88 50 3 19 -2 33 -13 42 -16 11 -16 13 -1 28
21 21 20 31 -4 55 -19 19 -50 24 -77 13z"/>
</g>
</svg>
