<?xml version="1.0" standalone="no"?>
<!DOCTYPE svg PUBLIC "-//W3C//DTD SVG 20010904//EN"
 "http://www.w3.org/TR/2001/REC-SVG-20010904/DTD/svg10.dtd">
<svg version="1.0" xmlns="http://www.w3.org/2000/svg"
 width="1200.000000pt" height="367.000000pt" viewBox="0 0 1200.000000 367.000000"
 preserveAspectRatio="xMidYMid meet">

<g transform="translate(0.000000,367.000000) scale(0.100000,-0.100000)"
fill="#000000" stroke="none">
<path d="M3555 3489 c-144 -19 -229 -124 -229 -284 -1 -104 23 -175 78 -229
113 -114 349 -97 437 30 40 58 63 153 55 227 -19 183 -151 282 -341 256z m152
-78 c82 -38 127 -155 105 -273 -13 -72 -43 -119 -93 -148 -106 -59 -237 -23
-289 80 -40 79 -34 211 13 282 48 72 173 100 264 59z"/>
<path d="M7590 3295 c-126 -39 -195 -181 -169 -343 24 -155 118 -234 276 -234
95 0 170 35 221 101 l34 45 -33 17 -33 17 -29 -40 c-68 -94 -225 -103 -304
-17 -58 63 -75 201 -36 289 57 129 217 159 317 58 33 -33 44 -38 68 -33 39 9
41 18 15 56 -27 40 -76 75 -126 89 -50 14 -147 11 -201 -5z"/>
<path d="M8959 3295 c-54 -17 -116 -74 -144 -130 -27 -55 -33 -206 -11 -272
37 -111 132 -175 259 -175 112 0 187 38 241 123 16 26 16 26 -15 42 l-32 15
-29 -40 c-78 -107 -245 -102 -323 10 -26 38 -30 54 -34 124 -4 93 9 144 45
188 39 45 81 63 149 64 74 0 130 -25 157 -70 18 -30 20 -31 53 -21 19 6 35 16
35 23 0 22 -61 84 -104 106 -53 28 -181 34 -247 13z"/>
<path d="M6520 3010 l0 -290 40 0 40 0 0 135 0 135 160 0 160 0 0 -135 0 -135
35 0 35 0 0 290 0 290 -35 0 -35 0 0 -120 0 -120 -160 0 -160 0 0 120 0 120
-40 0 -40 0 0 -290z"/>
<path d="M9420 3010 l0 -290 40 0 40 0 0 135 0 135 155 0 154 0 3 -132 3 -133
38 -3 37 -3 0 290 0 291 -40 0 -40 0 0 -120 0 -120 -155 0 -155 0 0 120 0 120
-40 0 -40 0 0 -290z"/>
<path d="M7153 2885 c-26 -11 -63 -58 -63 -80 0 -16 43 -1 68 25 37 37 74 39
107 5 30 -29 31 -45 4 -79 -15 -19 -30 -26 -55 -26 -29 0 -34 -3 -34 -24 0
-22 5 -25 42 -28 104 -8 98 -128 -6 -128 -42 0 -76 21 -76 48 0 7 -11 12 -25
12 -27 0 -32 -18 -15 -51 17 -30 64 -49 124 -49 47 0 61 4 87 28 42 37 46 98
10 136 -14 14 -31 26 -40 26 -9 0 -2 11 19 29 30 24 35 34 34 70 -2 47 -16 69
-61 88 -41 16 -79 16 -120 -2z"/>
<path d="M10054 2886 c-32 -14 -64 -51 -64 -73 0 -21 48 -16 55 5 6 20 45 42
73 42 34 0 62 -29 62 -64 0 -41 -24 -63 -70 -68 -27 -2 -35 -7 -35 -23 0 -16
8 -21 40 -23 50 -4 75 -26 75 -67 0 -43 -27 -65 -78 -65 -33 0 -45 5 -65 31
-16 21 -31 30 -46 27 -21 -3 -21 -3 -4 -38 25 -48 55 -62 132 -57 55 3 67 7
87 31 35 40 34 107 -2 135 -15 12 -34 21 -43 21 -10 1 -6 6 11 16 34 18 48 43
48 84 0 44 -16 69 -55 86 -42 17 -81 17 -121 0z"/>
<path d="M3480 2270 l0 -581 28 3 27 3 0 575 0 575 -27 3 -28 3 0 -581z"/>
<path d="M3690 2270 l0 -581 28 3 27 3 0 575 0 575 -27 3 -28 3 0 -581z"/>
<path d="M7892 2507 c-13 -6 -21 -16 -18 -24 3 -8 105 -186 226 -395 121 -210
219 -382 217 -384 -10 -10 -1134 -656 -1142 -656 -5 -1 -197 108 -425 240
-372 216 -416 239 -428 224 -7 -9 -11 -22 -10 -29 3 -15 844 -503 853 -495 3
3 15 6 28 7 12 0 280 150 596 333 l573 332 432 -250 c385 -223 432 -248 444
-233 6 9 12 22 12 28 0 7 -187 119 -416 251 -229 131 -418 244 -420 250 -3 6
94 183 216 393 121 210 220 385 220 390 0 4 -11 13 -24 19 -23 10 -29 1 -242
-369 -168 -290 -221 -376 -230 -366 -6 6 -105 174 -219 372 -113 198 -210 363
-213 366 -4 4 -17 2 -30 -4z"/>
<path d="M85 2107 c-3 -7 -4 -138 -3 -292 l3 -280 38 -3 37 -3 0 135 0 136
155 0 154 0 3 -132 3 -133 38 -3 37 -3 0 296 0 296 -37 -3 -38 -3 -3 -122 -3
-123 -154 0 -155 0 0 125 0 125 -35 0 c-20 0 -38 -6 -40 -13z"/>
<path d="M1160 2111 c-139 -43 -210 -182 -180 -354 15 -85 57 -151 123 -191
39 -24 62 -30 126 -34 116 -7 206 30 251 103 26 42 25 49 -7 64 -24 11 -29 10
-40 -6 -56 -78 -125 -111 -207 -99 -121 19 -193 142 -167 288 21 120 80 173
196 173 78 0 130 -23 155 -70 15 -27 26 -30 65 -15 24 9 25 11 11 37 -38 73
-118 113 -226 112 -41 0 -86 -4 -100 -8z"/>
<path d="M10646 2105 c-56 -20 -107 -65 -136 -121 -22 -43 -25 -61 -25 -159 0
-103 2 -113 30 -164 33 -61 72 -94 134 -116 50 -17 149 -20 203 -5 46 13 113
64 140 107 l19 32 -32 16 c-30 16 -33 16 -42 -1 -6 -11 -25 -33 -44 -51 -102
-97 -281 -50 -321 84 -18 61 -15 171 7 218 35 78 115 122 202 112 62 -8 107
-31 127 -68 10 -16 22 -29 29 -29 22 0 63 19 63 30 0 25 -83 99 -127 114 -57
20 -174 20 -227 1z"/>
<path d="M11115 2108 c-3 -7 -4 -139 -3 -293 l3 -280 38 -3 37 -3 0 135 0 136
155 0 154 0 3 -132 3 -133 38 -3 37 -3 0 296 0 296 -37 -3 -38 -3 -3 -122 -3
-123 -154 0 -154 0 -3 123 -3 122 -33 3 c-20 2 -34 -2 -37 -10z"/>
<path d="M5750 1820 l0 -290 35 0 35 0 0 247 0 246 153 -244 154 -244 46 -3
47 -3 0 290 0 291 -35 0 -35 0 0 -242 0 -242 -152 242 -153 242 -47 0 -48 0 0
-290z"/>
<path d="M3170 1474 c-233 -134 -425 -246 -428 -248 -5 -6 21 -46 31 -46 4 0
195 108 423 240 l415 240 407 -235 407 -235 17 22 c9 13 14 26 10 29 -4 4
-191 113 -416 243 -301 174 -412 233 -418 224 -6 -10 -10 -10 -16 -1 -5 9
-132 -59 -432 -233z"/>
<path d="M702 1691 c-26 -17 -52 -54 -52 -77 0 -2 11 -4 25 -4 14 0 25 5 25
10 0 22 41 50 73 50 40 0 70 -28 70 -66 0 -35 -23 -56 -70 -63 -40 -7 -62 -41
-26 -41 74 0 122 -44 103 -94 -23 -61 -127 -62 -150 -2 -7 18 -14 22 -33 19
-23 -5 -24 -7 -15 -35 22 -64 136 -91 205 -48 62 38 61 150 -2 166 l-26 6 32
27 c27 23 31 33 31 70 -1 63 -33 93 -104 98 -41 3 -60 -1 -86 -16z"/>
<path d="M11733 1690 c-53 -32 -70 -80 -28 -80 14 0 25 5 25 10 0 20 41 50 68
50 43 0 72 -26 72 -65 0 -41 -29 -65 -77 -65 -26 0 -33 -4 -33 -19 0 -14 10
-20 42 -25 55 -9 78 -31 78 -72 0 -63 -87 -88 -135 -39 -14 13 -25 28 -25 33
0 5 -11 7 -24 5 -22 -5 -23 -8 -14 -35 21 -61 128 -89 198 -53 37 19 50 43 50
93 0 39 -31 82 -58 82 -7 0 -12 5 -12 10 0 6 6 10 14 10 37 0 60 85 36 131
-26 48 -121 64 -177 29z"/>
<path d="M1552 1506 c-10 -23 -4 -28 255 -177 251 -144 267 -151 280 -134 7
11 12 23 10 29 -3 10 -507 305 -523 305 -6 1 -16 -10 -22 -23z"/>
<path d="M5465 1428 c-93 -54 -205 -119 -248 -144 -72 -42 -77 -46 -66 -67 7
-12 13 -24 15 -26 4 -4 504 282 504 289 0 3 -8 15 -18 26 l-17 21 -170 -99z"/>
<path d="M10118 1372 c-148 -86 -268 -161 -268 -167 0 -6 6 -19 13 -28 11 -15
40 0 284 141 149 86 274 160 278 164 8 8 -17 48 -30 47 -5 -1 -130 -71 -277
-157z"/>
<path d="M4707 1426 c-75 -21 -127 -63 -162 -131 -27 -53 -30 -68 -30 -154 0
-85 3 -102 29 -154 49 -102 156 -155 284 -144 165 16 256 127 255 308 -1 97
-29 165 -89 218 -68 60 -190 84 -287 57z m193 -76 c52 -26 88 -83 100 -153 10
-64 0 -149 -24 -195 -14 -28 -69 -81 -84 -82 -4 -1 -27 -5 -52 -10 -59 -11
-132 5 -171 37 -119 100 -97 351 36 409 47 21 149 17 195 -6z"/>
<path d="M9457 1426 c-84 -23 -135 -95 -120 -170 14 -73 57 -102 209 -142 147
-38 164 -50 164 -118 0 -63 -85 -104 -189 -92 -66 8 -107 31 -124 69 -11 25
-16 28 -46 23 -46 -7 -48 -12 -26 -54 40 -73 139 -110 268 -99 122 10 197 74
197 166 0 89 -49 132 -185 165 -161 39 -195 59 -195 116 0 68 108 108 212 80
33 -10 71 -43 80 -71 2 -5 17 -7 36 -3 44 9 42 36 -5 84 -57 56 -168 75 -276
46z"/>
<path d="M2190 1140 l0 -290 36 0 35 0 -3 239 c-2 132 0 237 4 235 3 -2 72
-110 153 -239 l148 -235 48 0 49 0 0 290 0 290 -35 0 -35 0 -2 -243 -3 -244
-153 244 -154 243 -44 0 -44 0 0 -290z"/>
<path d="M6210 1320 c-6 -12 -10 -23 -8 -25 2 -2 195 -114 428 -249 l425 -245
13 25 c8 14 12 27 10 29 -10 10 -825 478 -840 482 -10 3 -21 -4 -28 -17z"/>
<path d="M2190 459 l0 -290 38 3 37 3 3 133 3 132 154 0 155 0 0 -135 0 -135
40 0 40 0 0 290 0 290 -40 0 -40 0 0 -120 0 -120 -155 0 -155 0 0 120 0 120
-40 0 -40 0 0 -291z"/>
</g>
</svg>
