<?xml version="1.0" standalone="no"?>
<!DOCTYPE svg PUBLIC "-//W3C//DTD SVG 20010904//EN"
 "http://www.w3.org/TR/2001/REC-SVG-20010904/DTD/svg10.dtd">
<svg version="1.0" xmlns="http://www.w3.org/2000/svg"
 width="1200.000000pt" height="449.000000pt" viewBox="0 0 1200.000000 449.000000"
 preserveAspectRatio="xMidYMid meet">

<g transform="translate(0.000000,449.000000) scale(0.100000,-0.100000)"
fill="#000000" stroke="none">
<path d="M2902 4138 c-9 -11 50 -75 294 -318 187 -187 303 -311 301 -320 -2
-8 -101 -183 -221 -389 -119 -206 -216 -378 -216 -383 0 -4 212 -8 471 -8 412
0 470 2 465 15 -3 8 -104 185 -224 394 l-219 379 308 308 c246 246 306 311
297 322 -9 11 -73 -48 -320 -295 l-308 -308 -308 308 c-247 247 -311 306 -320
295z m837 -1028 l199 -345 -204 -3 c-112 -1 -296 -1 -409 0 l-204 3 201 348
c110 191 205 346 209 345 5 -2 98 -158 208 -348z"/>
<path d="M7415 3865 l-390 -225 -5 -446 -5 -447 -369 -213 c-203 -117 -372
-211 -375 -210 -463 268 -534 307 -543 298 -6 -6 -8 -15 -4 -20 3 -5 125 -78
270 -162 l265 -152 -5 -42 c-2 -22 -15 -194 -29 -381 -13 -187 -27 -366 -30
-397 l-6 -58 36 0 35 0 0 -320 c0 -313 0 -320 20 -320 20 0 20 7 20 320 l0
320 30 0 c17 0 30 5 30 13 0 6 -14 200 -31 429 -17 229 -29 423 -26 430 5 15
722 431 741 431 6 0 177 -95 379 -212 202 -116 374 -214 381 -217 8 -3 185 94
395 216 l382 220 268 -155 c148 -85 273 -155 279 -155 5 0 12 6 15 13 3 9 -84
65 -269 171 l-274 158 -2 445 -3 446 -385 223 c-212 123 -390 223 -395 224 -6
0 -186 -101 -400 -225z m770 -29 l370 -214 3 -435 2 -435 -374 -216 -373 -216
-377 217 -376 217 0 431 0 431 373 216 c204 119 374 217 377 217 3 0 172 -96
375 -213z"/>
<path d="M7481 3751 c-167 -97 -303 -180 -303 -184 0 -4 2 -13 4 -19 3 -7 132
61 321 171 228 132 314 186 310 197 -3 8 -10 14 -17 13 -6 -1 -148 -81 -315
-178z"/>
<path d="M8430 3185 c0 -358 0 -365 20 -365 20 0 20 7 20 365 0 358 0 365 -20
365 -20 0 -20 -7 -20 -365z"/>
<path d="M7177 2816 c-4 -11 72 -60 296 -190 166 -96 309 -178 318 -181 10 -4
19 0 22 9 7 17 -1 21 -388 244 -240 138 -240 138 -248 118z"/>
<path d="M10488 3867 l-387 -222 -1 -445 0 -446 -275 -158 c-151 -87 -275
-161 -275 -164 1 -35 32 -21 289 128 237 138 277 158 295 148 12 -6 185 -105
384 -221 315 -181 367 -208 385 -199 12 6 189 107 392 225 l370 215 0 458 0
458 -385 223 c-212 122 -389 223 -395 223 -5 0 -184 -100 -397 -223z m767 -31
l370 -213 0 -438 0 -437 -369 -214 -369 -213 -32 17 c-18 9 -188 107 -379 217
l-346 200 0 430 0 430 373 217 c204 119 374 216 377 217 3 1 172 -95 375 -213z"/>
<path d="M10560 3754 c-168 -97 -308 -179 -312 -183 -4 -3 -3 -13 2 -20 9 -16
-6 -23 443 237 178 102 212 129 181 139 -5 2 -146 -76 -314 -173z"/>
<path d="M11500 3185 c0 -358 0 -365 20 -365 20 0 20 7 20 365 0 358 0 365
-20 365 -20 0 -20 -7 -20 -365z"/>
<path d="M10247 2816 c-8 -21 620 -383 636 -367 7 7 8 14 1 21 -14 14 -614
360 -624 360 -4 0 -10 -6 -13 -14z"/>
<path d="M1515 3818 c-132 -29 -177 -236 -76 -350 l39 -43 80 0 c76 0 83 2
111 29 26 25 51 78 51 109 0 4 -11 7 -24 7 -19 0 -27 -8 -36 -35 -17 -53 -56
-78 -108 -72 -86 9 -135 100 -112 204 14 62 25 80 60 98 58 30 130 13 151 -36
8 -21 18 -29 35 -29 29 0 30 15 4 57 -34 57 -96 79 -175 61z"/>
<path d="M1780 3626 l0 -196 25 0 25 0 -2 193 c-3 191 -3 192 -25 195 l-23 3
0 -195z"/>
<path d="M1530 3061 l0 -308 -325 -188 c-240 -139 -325 -192 -322 -204 2 -9 9
-15 16 -13 7 1 157 86 332 188 l319 184 373 -215 c206 -118 379 -215 384 -215
6 0 13 6 16 13 3 9 -123 87 -374 231 l-379 219 0 308 c0 302 0 309 -20 309
-20 0 -20 -7 -20 -309z"/>
<path d="M5425 2924 c-70 -36 -105 -97 -105 -184 0 -99 53 -177 135 -200 147
-41 269 89 234 250 -13 59 -57 116 -106 136 -43 19 -121 17 -158 -2z m141 -40
c49 -24 76 -73 77 -142 1 -100 -50 -162 -132 -162 -94 0 -149 72 -139 181 6
59 31 97 79 121 42 22 71 23 115 2z"/>
<path d="M1685 2820 c-4 -7 -3 -16 1 -20 5 -5 146 -88 313 -185 243 -140 306
-173 318 -164 8 7 10 15 6 19 -10 10 -600 350 -618 356 -7 3 -16 0 -20 -6z"/>
<path d="M2966 2697 c-16 -12 -14 -48 3 -47 18 1 41 29 35 44 -7 19 -15 20
-38 3z"/>
<path d="M4056 2694 c-4 -10 1 -22 11 -30 15 -11 20 -10 33 2 13 14 13 17 -4
30 -25 18 -32 18 -40 -2z"/>
<path d="M2861 2651 c-12 -8 -12 -13 3 -35 19 -30 29 -32 45 -12 9 11 10 20 1
35 -12 23 -27 26 -49 12z"/>
<path d="M4149 2644 c-9 -11 -10 -20 -3 -32 17 -26 32 -25 50 3 15 23 15 28 3
36 -21 13 -35 11 -50 -7z"/>
<path d="M5003 2473 c-244 -142 -270 -159 -261 -176 7 -14 13 -16 21 -8 6 6
15 11 19 11 4 0 8 -147 8 -326 0 -305 1 -325 18 -322 16 3 17 30 22 341 l5
338 230 133 c206 118 252 153 220 162 -5 2 -132 -67 -282 -153z"/>
<path d="M2767 2608 c-15 -12 -15 -15 4 -45 23 -37 28 -38 52 -20 15 11 15 14
-4 45 -23 36 -28 37 -52 20z"/>
<path d="M4241 2588 c-19 -31 -19 -34 -4 -45 24 -18 29 -17 52 20 19 30 19 33
4 45 -24 17 -29 16 -52 -20z"/>
<path d="M2663 2562 c-9 -5 -4 -20 16 -55 26 -45 28 -46 49 -31 l22 15 -23 39
c-21 39 -39 48 -64 32z"/>
<path d="M4332 2531 l-22 -40 22 -15 c21 -15 23 -14 46 25 13 22 21 47 18 55
-10 27 -42 15 -64 -25z"/>
<path d="M2578 2523 c-10 -2 -18 -9 -18 -14 0 -12 53 -109 60 -109 3 1 13 7
23 15 18 13 18 16 -10 64 -15 28 -30 50 -33 50 -3 -1 -13 -3 -22 -6z"/>
<path d="M4427 2479 c-28 -48 -28 -51 -10 -64 10 -8 20 -14 23 -15 3 0 18 24
34 52 27 49 27 52 10 65 -10 7 -20 13 -23 13 -3 0 -19 -23 -34 -51z"/>
<path d="M452 2473 c-19 -9 -44 -35 -60 -62 -23 -39 -27 -57 -27 -121 0 -131
59 -200 171 -200 90 0 137 37 158 123 6 26 5 28 -21 25 -21 -2 -29 -10 -35
-35 -17 -64 -92 -92 -158 -58 -76 39 -92 196 -27 271 46 54 154 41 177 -22 7
-17 17 -24 35 -24 29 0 29 0 11 45 -21 49 -68 75 -136 75 -30 0 -70 -8 -88
-17z"/>
<path d="M760 2295 l0 -195 25 0 25 0 0 195 0 195 -25 0 -25 0 0 -195z"/>
<path d="M9255 2472 c-63 -40 -95 -101 -95 -182 0 -82 39 -153 102 -186 43
-22 136 -18 182 9 111 63 119 274 13 349 -45 32 -159 37 -202 10z m162 -42
c44 -27 65 -72 65 -140 0 -105 -55 -165 -145 -157 -103 9 -156 123 -111 236
30 75 121 104 191 61z"/>
<path d="M2471 2471 c-11 -7 -8 -19 18 -65 38 -66 48 -73 68 -53 14 14 13 21
-14 69 -31 54 -47 65 -72 49z"/>
<path d="M4520 2428 c-35 -61 -35 -62 -15 -78 20 -16 28 -9 65 56 25 45 29 59
18 65 -25 17 -38 9 -68 -43z"/>
<path d="M2377 2429 c-16 -10 -15 -14 14 -67 46 -82 55 -90 75 -70 15 15 14
21 -20 82 -39 70 -41 71 -69 55z"/>
<path d="M4612 2371 l-40 -70 22 -15 c21 -13 24 -12 42 17 19 32 19 32 22
-310 2 -296 4 -343 17 -343 13 0 15 46 15 345 0 300 -2 345 -15 345 -19 0 -19
2 6 44 20 35 20 35 0 45 -11 6 -22 11 -24 11 -3 0 -23 -31 -45 -69z"/>
<path d="M4652 1589 c-80 -40 -118 -148 -88 -252 39 -133 199 -180 300 -88 77
70 88 202 24 294 -46 65 -155 86 -236 46z m163 -43 c59 -39 81 -132 50 -212
-22 -57 -62 -84 -127 -84 -38 0 -54 6 -81 30 -82 71 -66 234 26 276 38 17 98
12 132 -10z"/>
<path d="M6120 1090 c0 -313 0 -320 20 -320 20 0 20 7 20 320 0 313 0 320 -20
320 -20 0 -20 -7 -20 -320z"/>
<path d="M6390 1090 c0 -313 0 -320 20 -320 20 0 20 7 20 320 0 313 0 320 -20
320 -20 0 -20 -7 -20 -320z"/>
<path d="M6130 525 c0 -188 1 -195 20 -195 19 0 20 7 20 156 0 85 4 153 8 150
4 -2 50 -72 102 -155 85 -134 98 -151 123 -151 l27 0 0 195 c0 188 -1 195 -20
195 -19 0 -20 -7 -20 -156 0 -85 -3 -153 -7 -151 -5 3 -51 73 -103 156 -84
134 -98 150 -122 151 l-28 0 0 -195z"/>
</g>
</svg>
