<?xml version="1.0" standalone="no"?>
<!DOCTYPE svg PUBLIC "-//W3C//DTD SVG 20010904//EN"
 "http://www.w3.org/TR/2001/REC-SVG-20010904/DTD/svg10.dtd">
<svg version="1.0" xmlns="http://www.w3.org/2000/svg"
 width="1200.000000pt" height="722.000000pt" viewBox="0 0 1200.000000 722.000000"
 preserveAspectRatio="xMidYMid meet">

<g transform="translate(0.000000,722.000000) scale(0.100000,-0.100000)"
fill="#000000" stroke="none">
<path d="M5834 7122 c-76 -27 -119 -66 -160 -142 -14 -28 -18 -57 -17 -143 0
-99 3 -113 29 -165 55 -107 146 -152 272 -135 84 12 128 40 173 112 39 60 35
85 -11 89 -33 3 -37 0 -48 -32 -27 -73 -116 -117 -194 -95 -103 27 -138 85
-138 229 0 80 4 101 23 134 40 71 113 104 192 86 38 -8 84 -48 110 -94 8 -15
17 -17 43 -11 39 8 40 24 7 81 -51 87 -173 125 -281 86z"/>
<path d="M6250 6835 l0 -295 35 0 35 0 0 295 0 295 -35 0 -35 0 0 -295z"/>
<path d="M5886 6384 c-3 -9 -6 -274 -6 -589 l0 -574 -510 -3 c-510 -3 -545 -6
-526 -37 5 -8 161 -11 517 -11 398 0 511 -3 514 -12 3 -7 2 -366 -2 -798 l-8
-785 -110 -63 c-60 -36 -364 -211 -673 -390 l-564 -325 -44 22 c-25 12 -329
183 -675 382 -347 198 -645 367 -663 375 -32 16 -33 16 -162 -56 -174 -98
-809 -463 -1071 -617 l-212 -124 -5 -42 c-4 -23 -9 -390 -14 -815 l-7 -774
-180 -105 c-506 -294 -625 -367 -625 -385 0 -10 7 -18 15 -18 9 0 198 104 420
231 266 152 411 230 424 226 10 -2 225 -124 477 -269 499 -289 781 -449 860
-492 l50 -27 270 151 c242 137 860 492 1072 616 l82 48 0 811 1 810 676 390
c372 215 684 391 693 393 15 3 296 -156 1045 -587 165 -96 306 -179 313 -186
10 -9 14 -178 20 -814 l7 -803 23 -18 c44 -36 1384 -810 1402 -810 7 0 914
518 1233 704 82 47 154 86 161 86 18 0 102 -46 516 -280 485 -274 496 -280
514 -280 28 0 17 29 -21 55 -21 13 -249 145 -508 293 l-470 270 -3 810 -2 810
-153 90 c-202 119 -1170 673 -1225 701 l-43 22 -87 -47 c-47 -25 -343 -194
-656 -374 -686 -394 -652 -375 -683 -361 -31 14 -1324 760 -1340 773 -10 8
-13 180 -13 799 l0 789 613 0 c366 0 618 4 627 10 12 7 12 12 2 22 -10 10
-142 14 -627 16 l-615 3 0 567 c0 312 -3 577 -6 590 -7 25 -29 29 -38 6z
m-2370 -3083 c219 -126 523 -300 674 -388 l275 -159 0 -803 0 -803 -310 -180
c-170 -99 -476 -275 -679 -391 l-368 -211 -64 34 c-35 18 -344 196 -686 394
l-623 361 -2 795 -3 795 678 392 c372 215 684 392 693 392 9 1 195 -102 415
-228z m5602 1 c218 -126 522 -300 674 -388 l277 -159 -2 -805 -2 -804 -275
-159 c-789 -457 -1075 -618 -1090 -614 -16 4 -501 282 -1125 645 l-240 139 0
794 0 793 145 84 c667 388 1217 702 1228 702 7 0 191 -103 410 -228z"/>
<path d="M2965 3015 c-205 -32 -383 -108 -526 -223 -134 -109 -209 -202 -288
-360 -108 -216 -141 -413 -106 -642 33 -216 148 -440 313 -606 215 -216 531
-331 834 -303 325 31 588 176 777 429 160 215 222 428 208 720 -8 157 -25 229
-87 358 -119 249 -271 407 -507 526 -103 52 -202 82 -324 100 -124 19 -184 19
-294 1z m316 -60 c257 -45 489 -183 640 -383 59 -78 139 -233 169 -327 19 -57
24 -100 28 -239 7 -245 -18 -367 -109 -535 -141 -261 -357 -431 -644 -506
-248 -64 -495 -36 -736 86 -196 98 -365 283 -457 501 -69 163 -77 201 -77 398
0 202 13 266 90 428 81 171 168 282 304 386 212 164 522 239 792 191z"/>
<path d="M8592 3020 c-157 -22 -349 -89 -452 -157 -89 -59 -185 -140 -235
-198 -109 -128 -217 -345 -252 -508 -20 -96 -20 -318 1 -413 55 -254 231 -527
432 -670 136 -97 349 -176 521 -194 228 -24 497 42 689 169 171 113 300 264
391 458 78 168 88 219 88 453 0 204 -1 206 -32 300 -117 348 -338 577 -680
706 -130 49 -337 73 -471 54z m319 -70 c370 -76 650 -322 768 -675 168 -506
-93 -1076 -581 -1269 -137 -54 -230 -70 -393 -70 -129 1 -164 4 -248 27 -179
48 -362 151 -473 269 -118 124 -222 310 -266 478 -28 109 -35 291 -14 409 64
364 335 689 661 791 204 63 371 75 546 40z"/>
<path d="M4230 5511 c-77 -25 -141 -80 -171 -146 -25 -54 -26 -220 -2 -290 67
-199 368 -220 464 -33 29 57 25 75 -17 80 -33 4 -37 1 -50 -31 -29 -70 -77
-102 -154 -103 -70 0 -128 34 -157 92 -31 61 -33 211 -3 269 53 105 184 131
260 52 19 -20 40 -44 45 -54 13 -23 75 -13 75 12 0 34 -58 110 -102 132 -46
23 -146 34 -188 20z"/>
<path d="M7469 5507 c-141 -53 -200 -156 -185 -325 10 -121 49 -189 136 -240
63 -37 175 -37 246 -1 54 28 114 102 117 145 2 24 -3 29 -31 35 -31 6 -34 5
-57 -41 -27 -53 -57 -76 -112 -88 -80 -17 -171 27 -200 97 -22 51 -23 216 -1
256 58 108 191 136 268 56 19 -20 40 -44 45 -54 8 -14 17 -16 43 -11 19 4 32
13 32 22 0 30 -60 108 -101 131 -51 29 -148 37 -200 18z"/>
<path d="M4630 5215 l0 -295 35 0 35 0 0 295 0 295 -35 0 -35 0 0 -295z"/>
<path d="M7880 5215 l0 -295 35 0 35 0 0 295 0 295 -35 0 -35 0 0 -295z"/>
<path d="M210 640 c-100 -47 -151 -124 -158 -240 -9 -151 35 -255 130 -309 46
-27 63 -31 128 -31 116 1 196 49 235 144 18 42 14 50 -27 60 -24 5 -30 2 -47
-31 -48 -95 -141 -128 -237 -84 -55 25 -83 68 -96 145 -22 130 12 231 91 273
83 43 168 22 216 -55 17 -27 25 -32 55 -29 47 3 48 22 8 82 -43 64 -93 89
-183 93 -54 2 -80 -2 -115 -18z"/>
<path d="M11433 647 c-64 -24 -119 -73 -148 -131 -26 -53 -27 -62 -23 -168 5
-131 21 -173 89 -232 57 -48 96 -59 190 -54 63 4 86 10 119 32 66 44 130 166
88 166 -7 0 -22 3 -34 6 -16 4 -24 -2 -39 -36 -65 -144 -283 -127 -324 25 -18
64 -13 184 8 231 55 122 221 140 290 32 18 -28 31 -38 50 -38 51 0 57 14 28
62 -32 54 -62 83 -109 103 -43 18 -139 19 -185 2z"/>
<path d="M650 355 l0 -295 35 0 35 0 0 295 0 295 -35 0 -35 0 0 -295z"/>
<path d="M11850 354 l0 -295 38 3 37 3 3 293 2 292 -40 0 -40 0 0 -296z"/>
</g>
</svg>
