<?xml version="1.0" standalone="no"?>
<!DOCTYPE svg PUBLIC "-//W3C//DTD SVG 20010904//EN"
 "http://www.w3.org/TR/2001/REC-SVG-20010904/DTD/svg10.dtd">
<svg version="1.0" xmlns="http://www.w3.org/2000/svg"
 width="1200.000000pt" height="569.000000pt" viewBox="0 0 1200.000000 569.000000"
 preserveAspectRatio="xMidYMid meet">

<g transform="translate(0.000000,569.000000) scale(0.100000,-0.100000)"
fill="#000000" stroke="none">
<path d="M8251 5603 c-61 -22 -124 -87 -147 -154 -44 -126 -13 -289 69 -368
53 -52 93 -66 187 -65 113 0 185 46 229 144 22 49 18 56 -34 62 -25 3 -30 -1
-38 -30 -31 -103 -189 -144 -281 -71 -52 41 -71 94 -71 199 0 86 3 100 27 142
67 113 245 119 303 10 17 -32 24 -37 50 -34 44 5 49 15 27 58 -26 50 -67 89
-114 108 -47 20 -149 19 -207 -1z"/>
<path d="M8702 5318 l3 -293 38 -3 37 -3 0 140 0 141 155 0 155 0 0 -140 0
-140 40 0 40 0 0 295 0 295 -40 0 -40 0 0 -120 0 -120 -155 0 -155 0 0 120 0
120 -40 0 -40 0 2 -292z"/>
<path d="M1180 5298 c-47 -28 -282 -165 -522 -304 -241 -140 -470 -274 -510
-297 l-73 -43 -3 -695 -2 -694 81 -49 c45 -27 274 -160 508 -296 234 -136 469
-273 522 -304 l97 -57 153 90 c85 50 355 206 601 348 l448 258 2 684 3 684
315 182 c173 99 433 249 576 332 l262 151 223 -131 c769 -448 945 -549 954
-549 6 0 156 85 335 189 179 104 441 257 584 340 l259 151 176 -103 c97 -56
280 -162 406 -235 127 -73 304 -176 395 -229 l165 -96 3 -667 2 -666 -112 -65
c-249 -143 -622 -359 -771 -445 -87 -51 -161 -92 -163 -92 -3 0 -60 32 -127
72 -67 39 -237 137 -377 218 -140 81 -286 166 -325 188 l-70 41 -13 -25 c-8
-14 -12 -27 -10 -28 4 -3 662 -385 776 -450 45 -26 82 -49 82 -51 0 -2 -16
-12 -35 -24 -30 -17 -35 -26 -35 -57 0 -30 -3 -35 -17 -30 -15 6 -723 410
-815 465 l-38 23 -11 -26 c-7 -14 -10 -28 -8 -30 6 -5 776 -449 836 -482 l53
-29 0 -422 0 -423 30 0 30 0 0 480 0 480 38 23 c20 13 255 149 522 302 267
152 506 290 531 306 25 16 50 29 56 29 9 0 478 -270 1015 -584 l166 -97 74 44
c40 25 231 135 423 247 193 111 354 205 358 210 11 10 -1 50 -14 50 -5 0 -123
-66 -262 -146 -402 -234 -576 -334 -580 -334 -5 0 -125 69 -557 320 -168 97
-369 214 -447 259 l-143 83 0 666 0 667 306 175 c602 345 544 308 532 336 -7
14 -16 23 -22 21 -6 -3 -199 -113 -429 -246 l-418 -241 -287 167 c-158 92
-421 245 -586 341 -263 154 -301 173 -321 164 -13 -6 -79 -43 -147 -83 -521
-304 -1004 -582 -1013 -582 -9 0 -479 270 -1065 612 -58 33 -109 61 -113 61
-5 0 -146 -80 -315 -178 -600 -349 -856 -495 -867 -495 -9 0 -239 132 -1035
594 -74 44 -139 79 -145 79 -5 -1 -48 -24 -95 -52z m380 -173 c140 -81 388
-224 550 -317 162 -94 301 -175 308 -180 9 -8 12 -155 12 -673 l0 -663 -77
-45 c-43 -25 -197 -114 -343 -198 -146 -84 -366 -211 -489 -282 -124 -71 -230
-131 -236 -133 -9 -4 -228 117 -460 255 -44 27 -218 128 -387 225 l-308 178 0
666 1 667 352 203 c193 111 451 260 572 331 149 87 225 126 235 121 8 -5 130
-74 270 -155z"/>
<path d="M1278 5084 c-10 -20 -9 -27 3 -35 8 -5 172 -100 364 -211 193 -110
404 -232 469 -271 113 -66 120 -69 133 -51 24 34 84 -5 -665 425 l-293 168
-11 -25z"/>
<path d="M270 3960 l0 -560 30 0 30 0 0 560 0 560 -30 0 -30 0 0 -560z"/>
<path d="M2085 3331 c-82 -48 -289 -168 -460 -265 -395 -227 -358 -202 -344
-229 7 -12 13 -23 14 -25 1 -1 132 72 291 164 159 91 372 213 474 271 102 58
190 111 197 117 9 8 8 16 -5 33 l-17 22 -150 -88z"/>
<path d="M9330 5272 c-43 -21 -80 -80 -59 -93 22 -13 49 -11 49 5 0 21 48 56
77 56 27 0 73 -41 73 -65 0 -25 -46 -65 -75 -65 -20 0 -25 -5 -25 -25 0 -22 4
-25 35 -25 72 0 109 -77 65 -133 -42 -53 -127 -42 -150 19 -9 24 -34 31 -57
16 -17 -11 13 -69 50 -96 44 -32 133 -29 180 7 68 52 74 145 12 194 l-34 27
25 24 c49 50 19 141 -54 162 -51 14 -72 13 -112 -8z"/>
<path d="M3630 5079 c-7 -11 -10 -22 -8 -24 2 -2 360 -209 932 -539 132 -77
139 -79 152 -61 8 11 13 23 11 28 -1 5 -122 78 -267 162 -146 84 -383 220
-527 304 -144 83 -267 151 -272 151 -6 0 -15 -9 -21 -21z"/>
<path d="M5989 5079 c-6 -12 -7 -24 -2 -29 4 -4 177 -104 383 -222 206 -118
419 -241 474 -273 94 -56 99 -58 112 -40 8 11 13 24 11 30 -2 5 -113 73 -248
151 -134 78 -346 200 -471 272 -125 73 -232 132 -237 132 -6 0 -15 -9 -22 -21z"/>
<path d="M4711 3563 c-25 -9 -66 -37 -92 -63 -57 -57 -83 -126 -83 -225 -1
-174 98 -292 255 -303 88 -6 146 15 211 76 62 58 83 118 82 232 -1 131 -51
222 -149 272 -54 28 -164 34 -224 11z m172 -67 c52 -19 76 -42 103 -101 27
-56 32 -151 13 -220 -25 -91 -126 -147 -226 -127 -109 22 -158 94 -158 227 1
127 43 197 135 223 49 14 89 13 133 -2z"/>
<path d="M9403 3555 c-102 -51 -156 -148 -157 -280 -1 -174 98 -292 255 -303
120 -8 221 52 270 161 33 73 33 210 0 282 -47 105 -123 156 -241 162 -65 3
-82 0 -127 -22z m229 -80 c88 -58 117 -215 61 -326 -45 -88 -123 -123 -223
-99 -129 31 -188 203 -121 354 44 100 186 135 283 71z"/>
<path d="M7369 3399 c-15 -28 -16 -28 186 -144 185 -107 499 -288 665 -384
l105 -60 17 22 c13 17 14 25 5 33 -7 6 -181 107 -387 224 -206 118 -419 240
-473 272 -53 32 -99 58 -102 58 -2 0 -9 -10 -16 -21z"/>
<path d="M9840 3094 c-11 -12 -11 -17 1 -28 8 -8 129 -80 269 -160 252 -146
285 -159 285 -115 0 13 -508 318 -531 319 -6 0 -17 -7 -24 -16z"/>
<path d="M10618 2884 c-126 -39 -201 -199 -168 -359 34 -166 131 -244 290
-233 102 8 162 49 206 143 26 54 22 61 -31 67 -25 3 -30 -1 -38 -30 -15 -48
-76 -99 -129 -107 -98 -15 -186 38 -213 128 -18 60 -19 146 -4 202 17 61 83
121 142 130 90 14 159 -18 187 -85 12 -28 16 -30 44 -24 46 10 47 12 30 52
-45 109 -179 158 -316 116z"/>
<path d="M11060 2595 l0 -295 40 0 40 0 0 140 0 140 150 0 149 0 3 -137 3
-138 38 -3 37 -3 0 295 0 296 -40 0 -40 0 0 -120 0 -120 -150 0 -150 0 0 120
0 120 -40 0 -40 0 0 -295z"/>
<path d="M11694 2556 c-36 -16 -74 -61 -74 -87 0 -28 50 -26 57 1 6 21 50 50
76 50 26 0 67 -41 67 -66 0 -29 -30 -57 -68 -64 -18 -4 -28 -12 -30 -28 -3
-19 1 -22 33 -22 27 0 44 -8 66 -29 34 -35 36 -54 9 -98 -36 -59 -123 -55
-155 7 -16 31 -30 36 -55 20 -13 -8 -12 -14 5 -46 28 -53 77 -76 144 -71 48 3
58 8 93 45 33 36 38 48 38 88 0 39 -5 51 -35 81 -36 36 -36 36 -16 57 42 45
32 115 -22 150 -34 23 -97 28 -133 12z"/>
<path d="M5908 1527 c-94 -27 -156 -96 -184 -207 -53 -206 72 -390 266 -390
163 0 274 119 274 295 1 138 -47 231 -145 280 -60 31 -147 40 -211 22z m188
-92 c57 -33 87 -96 92 -192 4 -60 0 -80 -21 -126 -15 -33 -39 -66 -63 -83 -34
-26 -45 -29 -115 -29 -71 0 -80 2 -115 31 -61 49 -79 94 -79 199 0 73 4 98 22
131 51 97 178 128 279 69z"/>
<path d="M5386 920 c-143 -83 -261 -152 -263 -154 -6 -6 20 -46 30 -46 13 0
527 299 527 306 0 11 -21 44 -28 44 -4 -1 -124 -68 -266 -150z"/>
<path d="M4748 847 c-122 -35 -188 -137 -188 -292 0 -131 49 -234 132 -276 51
-26 164 -36 224 -20 57 15 117 70 143 132 12 28 20 53 18 55 -3 3 -20 7 -38
10 -32 6 -35 3 -52 -35 -28 -63 -77 -95 -151 -99 -105 -5 -173 52 -196 165
-40 189 80 336 237 294 42 -12 103 -70 103 -100 0 -10 9 -12 36 -8 47 8 49 10
34 48 -45 108 -174 162 -302 126z"/>
<path d="M3650 555 l0 -295 35 0 34 0 3 138 3 137 150 0 150 0 3 -137 3 -138
39 0 40 0 0 295 0 295 -40 0 -40 0 0 -120 0 -120 -155 0 -155 0 0 120 0 120
-35 0 -35 0 0 -295z"/>
<path d="M4244 484 c-40 -42 -45 -74 -11 -74 14 0 32 12 45 30 41 55 132 34
132 -32 0 -31 -25 -54 -67 -63 -23 -5 -33 -12 -33 -26 0 -15 7 -19 36 -19 52
0 99 -48 90 -93 -12 -61 -83 -96 -137 -67 -10 6 -26 24 -34 41 -13 24 -20 29
-38 23 -30 -9 -30 -8 -13 -48 41 -99 211 -103 261 -7 32 64 9 149 -47 166 -20
7 -20 8 6 31 77 72 17 174 -103 174 -49 0 -57 -3 -87 -36z"/>
</g>
</svg>
